<!-- Generated by IcoMoon.io -->
<svg version="1.1" xmlns="http://www.w3.org/2000/svg" width="21" height="32" viewBox="0 0 21 32">
<path d="M10.375 3.223c-1.963 0.108-3.631 1.117-4.515 2.725-0.406 0.74-0.556 1.383-0.556 2.385 0 0.556 0.029 0.854 0.125 1.252l0.052 0.219 0.202 0.025c0.11 0.015 0.206 0.033 0.215 0.042 0.006 0.008 0.056 0.179 0.11 0.379 0.125 0.465 0.117 0.438 0.138 0.438 0.008 0 0.031-0.088 0.052-0.194 0.158-0.885 0.338-1.552 0.577-2.162l0.102-0.262 0.192-0.015c0.417-0.031 1.015-0.185 1.419-0.369 0.127-0.058 0.246-0.11 0.262-0.117 0.017-0.008-0.012 0.033-0.065 0.090-0.152 0.165-0.213 0.269-0.213 0.362 0 0.194 0.198 0.25 0.615 0.177 0.385-0.067 0.785-0.24 1.108-0.481 0.169-0.125 0.181-0.131 0.14-0.069-0.165 0.252-0.204 0.444-0.11 0.521 0.085 0.067 0.206 0.088 0.456 0.075 0.656-0.035 1.494-0.321 2.079-0.71 0.354-0.237 0.608-0.473 0.831-0.773 0.031-0.040 0.031-0.037 0.033 0.042 0 0.127 0.056 0.444 0.106 0.604 0.14 0.452 0.463 0.938 0.885 1.329 0.104 0.096 0.106 0.1 0.192 0.404 0.104 0.369 0.185 0.719 0.285 1.246 0.040 0.217 0.077 0.398 0.083 0.402 0.015 0.015 0.035-0.052 0.148-0.444 0.054-0.196 0.108-0.365 0.117-0.377 0.010-0.015 0.113-0.035 0.225-0.050 0.115-0.015 0.208-0.029 0.208-0.033s0.023-0.090 0.054-0.19c0.185-0.64 0.288-1.583 0.238-2.204-0.069-0.856-0.348-1.521-0.833-1.977-0.229-0.215-0.565-0.417-0.767-0.46-0.063-0.013-0.077-0.031-0.131-0.152-0.198-0.44-0.665-0.871-1.248-1.154-0.773-0.375-1.858-0.577-2.813-0.523z"></path>
<path d="M8.302 8.946c-0.273 0.054-0.517 0.158-0.592 0.254-0.060 0.077-0.058 0.183 0.008 0.248 0.065 0.067 0.129 0.065 0.287-0.008 0.269-0.125 0.577-0.177 0.765-0.127 0.183 0.048 0.2 0.048 0.256-0.004 0.123-0.106 0.069-0.29-0.1-0.346-0.123-0.042-0.454-0.050-0.625-0.017z"></path>
<path d="M12.385 9.019c-0.133 0.058-0.175 0.198-0.092 0.302 0.048 0.060 0.081 0.065 0.285 0.029 0.194-0.033 0.438 0.012 0.683 0.127 0.1 0.048 0.206 0.085 0.238 0.085 0.137 0 0.206-0.16 0.125-0.287-0.054-0.088-0.277-0.194-0.525-0.254-0.233-0.056-0.596-0.056-0.715-0.002z"></path>
<path d="M8.421 10.202c-0.037 0.019-0.102 0.071-0.142 0.119-0.233 0.273-0.15 0.827 0.144 0.969 0.175 0.085 0.352 0.046 0.483-0.106 0.094-0.11 0.135-0.242 0.135-0.425 0-0.344-0.196-0.592-0.463-0.592-0.050 0-0.121 0.017-0.158 0.035z"></path>
<path d="M12.579 10.25c-0.321 0.171-0.379 0.756-0.098 1.008 0.188 0.171 0.463 0.133 0.619-0.085 0.119-0.167 0.144-0.525 0.052-0.704-0.054-0.1-0.162-0.208-0.242-0.238-0.092-0.035-0.246-0.025-0.331 0.019z"></path>
<path d="M10.5 11.408c-0.158 0.133-0.233 0.444-0.156 0.65 0.075 0.204 0.204 0.317 0.36 0.317 0.096 0 0.192-0.069 0.192-0.137 0-0.019-0.058-0.090-0.127-0.156-0.127-0.123-0.129-0.123-0.119-0.223 0.006-0.069 0.031-0.133 0.077-0.198 0.096-0.14 0.104-0.206 0.033-0.262-0.079-0.060-0.179-0.056-0.26 0.010z"></path>
<path d="M9.469 12.821c-0.067 0.029-0.115 0.106-0.115 0.188 0 0.067 0.162 0.244 0.321 0.35 0.148 0.102 0.379 0.204 0.585 0.258 0.221 0.058 0.631 0.054 0.865-0.008 0.435-0.117 0.854-0.417 0.854-0.613 0-0.085-0.1-0.183-0.185-0.183-0.052 0-0.098 0.031-0.221 0.146-0.254 0.235-0.531 0.34-0.906 0.34-0.346 0-0.637-0.115-0.894-0.348-0.081-0.075-0.156-0.137-0.167-0.137s-0.031-0.004-0.048-0.010c-0.015-0.004-0.056 0.004-0.090 0.019z"></path>
<path d="M12.402 15.125c0 0.075 0.004 0.104 0.008 0.067 0.004-0.035 0.004-0.098 0-0.135-0.004-0.035-0.008-0.006-0.008 0.069z"></path>
<path d="M8.923 15.177c0 0.046 0.004 0.063 0.008 0.035 0.004-0.025 0.004-0.063 0-0.083-0.006-0.019-0.010 0.002-0.008 0.048z"></path>
<path d="M8.229 15.492c-1.083 0.298-1.969 0.706-2.542 1.169-0.315 0.254-0.644 0.633-0.873 1.002-0.106 0.169-0.377 0.698-0.34 0.66 0.010-0.012 0.081-0.14 0.154-0.283 0.525-1.027 1.183-1.608 2.402-2.119 0.44-0.185 1.258-0.446 1.521-0.483 0.1-0.015 0.102-0.017 0.021-0.017-0.046-0.002-0.2 0.031-0.344 0.071z"></path>
<path d="M12.792 15.438c0.156 0.021 0.706 0.169 1 0.267 0.385 0.131 0.613 0.225 0.969 0.4 0.954 0.469 1.554 1.056 2 1.958 0.142 0.292 0.185 0.342 0.065 0.081-0.179-0.396-0.51-0.881-0.808-1.188-0.512-0.525-1.29-0.965-2.271-1.287-0.406-0.133-0.881-0.252-0.988-0.25-0.071 0.002-0.067 0.006 0.033 0.019z"></path>
<path d="M8.65 15.563c0 0.029 0.004 0.040 0.010 0.025 0.004-0.012 0.004-0.037 0-0.052-0.006-0.012-0.010-0.002-0.010 0.027z"></path>
<path d="M12.692 15.563c0 0.029 0.004 0.040 0.010 0.025 0.004-0.012 0.004-0.037 0-0.052-0.006-0.012-0.010-0.002-0.010 0.027z"></path>
<path d="M12.669 15.7c0 0.023 0.006 0.029 0.012 0.012 0.006-0.015 0.004-0.033-0.002-0.040-0.006-0.008-0.012 0.004-0.010 0.027z"></path>
<path d="M8.875 16.185c0.010 0.023 0.031 0.048 0.044 0.056 0.012 0.006 0.006-0.010-0.012-0.042-0.042-0.063-0.063-0.073-0.031-0.015z"></path>
<path d="M12.435 16.223c-0.027 0.033-0.025 0.035 0.008 0.008 0.019-0.015 0.035-0.031 0.035-0.035 0-0.017-0.017-0.006-0.044 0.027z"></path>
<path d="M9.031 16.375c0.056 0.056 0.106 0.104 0.113 0.104s-0.035-0.048-0.092-0.104c-0.056-0.058-0.106-0.104-0.113-0.104s0.035 0.046 0.092 0.104z"></path>
<path d="M12.281 16.4l-0.125 0.131 0.131-0.125c0.121-0.115 0.14-0.135 0.123-0.135-0.002 0-0.060 0.058-0.129 0.129z"></path>
<path d="M12.102 16.556c-0.027 0.033-0.025 0.035 0.008 0.008 0.019-0.015 0.035-0.031 0.035-0.035 0-0.017-0.017-0.006-0.044 0.027z"></path>
<path d="M11.875 16.688c-0.040 0.023-0.065 0.040-0.056 0.042 0.023 0 0.14-0.060 0.14-0.073 0-0.015-0.002-0.015-0.083 0.031z"></path>
<path d="M11.225 16.91c0.015 0.006 0.033 0.004 0.040-0.002 0.008-0.006-0.004-0.012-0.027-0.010-0.023 0-0.029 0.006-0.012 0.012z"></path>
<path d="M10.246 16.931c0.015 0.006 0.033 0.004 0.040-0.002 0.008-0.006-0.004-0.012-0.027-0.010-0.023 0-0.029 0.006-0.012 0.012z"></path>
<path d="M10.392 16.952c0.025 0.004 0.063 0.004 0.083 0 0.019-0.006-0.002-0.010-0.048-0.008-0.046 0-0.063 0.004-0.035 0.008z"></path>
<path d="M10.923 16.952c0.019 0.004 0.048 0.004 0.063 0 0.012-0.006-0.002-0.010-0.037-0.010-0.033 0-0.046 0.004-0.025 0.010z"></path>
<path d="M3.719 18.373c-0.175 0.044-0.329 0.158-0.413 0.31-0.102 0.19-0.106 0.262-0.035 0.988 0.033 0.363 0.063 0.679 0.060 0.706 0 0.027 0.015 0.19 0.031 0.363 0.019 0.171 0.075 0.767 0.127 1.323 0.102 1.1 0.277 2.929 0.344 3.598 0.044 0.446 0.065 0.527 0.173 0.629l0.054 0.048-0.060 0.077c-0.175 0.219-0.188 0.571-0.029 0.881 0.067 0.133 0.237 0.302 0.371 0.369 0.229 0.113-0.156 0.106 6.325 0.106 3.977 0 6.042-0.008 6.102-0.023 0.419-0.096 0.71-0.479 0.71-0.931 0-0.158-0.029-0.252-0.117-0.381-0.071-0.108-0.073-0.108-0.033-0.152 0.11-0.121 0.117-0.152 0.233-1.429 0.023-0.246 0.056-0.59 0.073-0.76 0.040-0.377 0.148-1.521 0.26-2.708 0.046-0.481 0.087-0.917 0.094-0.969 0.004-0.052 0.029-0.3 0.052-0.552 0.025-0.252 0.052-0.552 0.065-0.669 0.029-0.325-0.019-0.5-0.183-0.658-0.044-0.042-0.125-0.098-0.183-0.125l-0.104-0.048-6.927-0.004c-3.81 0-6.954 0.004-6.99 0.012zM10.952 20.688c0.121 0.073 0.181 0.271 0.127 0.425-0.040 0.117-0.077 0.121-0.065 0.008 0.008-0.102-0.021-0.171-0.102-0.231-0.052-0.040-0.058-0.040-0.108-0.006-0.037 0.023-0.058 0.060-0.067 0.115-0.010 0.065-0.021 0.079-0.048 0.069-0.050-0.019-0.065-0.048-0.065-0.146 0-0.11 0.046-0.202 0.121-0.242 0.077-0.042 0.127-0.042 0.206 0.008zM10.277 20.71c0.115 0.090 0.121 0.371 0.010 0.373-0.010 0-0.017-0.035-0.017-0.079 0-0.054-0.015-0.094-0.042-0.119-0.088-0.079-0.156 0.029-0.14 0.223 0.012 0.133-0.010 0.158-0.046 0.056-0.033-0.096-0.029-0.277 0.008-0.369 0.056-0.133 0.129-0.163 0.225-0.085zM10.606 21.087c0.040 0.012 0.096 0.042 0.127 0.063s0.102 0.052 0.158 0.069c0.152 0.046 0.213 0.102 0.213 0.196 0 0.104-0.046 0.144-0.304 0.26-0.281 0.127-0.371 0.129-0.529 0.012-0.248-0.181-0.271-0.206-0.271-0.281s-0.002-0.073 0.208-0.21c0.204-0.135 0.269-0.152 0.398-0.108zM11.177 21.802c0.044 0.115 0.14 0.325 0.213 0.469 0.169 0.333 0.24 0.59 0.244 0.887 0.002 0.221-0.017 0.279-0.092 0.279-0.058 0-0.148 0.083-0.19 0.175-0.031 0.069-0.040 0.137-0.040 0.337 0 0.283 0.004 0.277-0.198 0.402-0.333 0.21-0.875 0.227-1.125 0.033l-0.073-0.054 0.073-0.069c0.060-0.058 0.073-0.083 0.073-0.156 0-0.108-0.054-0.169-0.365-0.404l-0.229-0.175 0.004-0.173c0.006-0.302 0.088-0.571 0.306-1.006 0.115-0.227 0.21-0.45 0.24-0.556 0.027-0.098 0.056-0.183 0.063-0.192 0.008-0.008 0.060 0.021 0.117 0.067 0.229 0.183 0.308 0.185 0.646 0.017 0.127-0.060 0.235-0.106 0.242-0.1s0.048 0.104 0.092 0.219zM11.798 22.598c0.085 0.181 0.088 0.188 0.085 0.402 0 0.121-0.012 0.246-0.025 0.279-0.037 0.087-0.052 0.052-0.023-0.058 0.042-0.167 0.015-0.415-0.069-0.623-0.042-0.1-0.069-0.181-0.065-0.181s0.048 0.081 0.096 0.181zM9.465 22.656c-0.088 0.219-0.106 0.398-0.063 0.604 0.017 0.079 0.027 0.15 0.025 0.154-0.004 0.004-0.023-0.029-0.042-0.073-0.048-0.113-0.063-0.337-0.033-0.458 0.025-0.098 0.158-0.404 0.175-0.404 0.004 0-0.023 0.079-0.063 0.177zM9.281 23.492c0.063 0.046 0.56 0.781 0.648 0.96 0.119 0.24 0.069 0.462-0.125 0.55-0.127 0.058-0.204 0.050-0.502-0.056-0.148-0.052-0.387-0.123-0.531-0.156-0.2-0.048-0.273-0.075-0.317-0.119-0.069-0.065-0.071-0.104-0.017-0.265 0.040-0.113 0.040-0.129 0.010-0.254-0.017-0.073-0.031-0.163-0.031-0.196 0-0.083 0.079-0.158 0.179-0.175 0.162-0.027 0.185-0.035 0.248-0.11 0.179-0.212 0.215-0.24 0.3-0.227 0.046 0.006 0.106 0.027 0.137 0.048zM11.583 23.548c0 0.077 0.1 0.25 0.165 0.283 0.123 0.067 0.344-0.006 0.492-0.158 0.081-0.083 0.085-0.085 0.127-0.052 0.060 0.048 0.092 0.113 0.092 0.192 0 0.102 0.050 0.19 0.185 0.325 0.202 0.202 0.179 0.254-0.192 0.435-0.162 0.079-0.285 0.158-0.406 0.26-0.221 0.185-0.279 0.217-0.421 0.217-0.14 0.002-0.26-0.052-0.317-0.142-0.033-0.054-0.037-0.090-0.029-0.21 0.004-0.081 0.025-0.206 0.042-0.281 0.021-0.083 0.033-0.233 0.033-0.387 0-0.315 0.035-0.45 0.131-0.508 0.090-0.056 0.098-0.052 0.098 0.027z"></path>
<path d="M10.167 21.508c0 0.004 0.048 0.042 0.104 0.083 0.058 0.042 0.104 0.067 0.104 0.054 0-0.010-0.040-0.048-0.088-0.083-0.077-0.056-0.121-0.077-0.121-0.054z"></path>
<path d="M10.781 21.54c-0.092 0.044-0.179 0.104-0.146 0.104 0.012 0 0.081-0.031 0.156-0.071 0.142-0.075 0.133-0.1-0.010-0.033z"></path>
<path d="M3.069 21.050c-0.256 0.673-0.56 1.56-0.579 1.69-0.006 0.046 0.023-0.029 0.065-0.167 0.092-0.306 0.348-1.029 0.585-1.652 0.098-0.256 0.173-0.469 0.169-0.473s-0.112 0.267-0.24 0.602z"></path>
<path d="M18.002 20.473c-0.002 0.015 0.027 0.098 0.063 0.188 0.119 0.3 0.512 1.39 0.619 1.715 0.158 0.481 0.198 0.7 0.2 1.063 0.002 0.417-0.056 0.665-0.235 1.008-0.196 0.377-0.579 0.698-0.998 0.835-0.060 0.019-0.106 0.040-0.102 0.044 0.015 0.015 0.202-0.054 0.358-0.131 0.488-0.244 0.81-0.66 0.952-1.229 0.038-0.152 0.046-0.242 0.046-0.517 0-0.394-0.044-0.61-0.229-1.171-0.19-0.573-0.671-1.858-0.673-1.804z"></path>
<path d="M2.435 22.983c-0.042 0.223-0.038 0.781 0.008 0.962 0.119 0.475 0.375 0.848 0.75 1.092 0.144 0.092 0.402 0.212 0.521 0.242 0.096 0.023 0.063-0.002-0.052-0.040-0.142-0.046-0.373-0.163-0.517-0.26-0.308-0.21-0.563-0.587-0.669-0.99-0.063-0.242-0.075-0.625-0.031-0.913 0.042-0.256 0.031-0.327-0.010-0.094z"></path>
</svg>
